{"title":"Spy.2015.UNRATED.HDRip.x264-MenaceIISociety","uid":12296746,"size":1244825021,"categoryP":"video","categoryS":"movies","magnet":"?xt=urn:btih:88a1d0b6a5a9343541c2f849602181aefedf82d2&amp;dn=Spy.2015.UNRATED.HDRip.x264-MenaceIISociety&amp;tr=udp%3A%2F%2Ftracker.openbittorrent.com%3A80&amp;tr=udp%3A%2F%2Fopen.demonii.com%3A1337&amp;tr=udp%3A%2F%2Ftracker.coppersurfer.tk%3A6969&amp;tr=udp%3A%2F%2Fexodus.desync.com%3A6969","seeders":0,"leechers":0,"uploader":"TvTeam","files":4,"time":1440626187,"description":"------------------------------------------------------------------------\n\n &lt;a href=&quot; https://www.torrenting.com&quot; rel=&quot;nofollow&quot; target=&quot;_NEW&quot;&gt; https://www.torrenting.com&lt;/a&gt;\n\nSign up is OPEN - for time being. Come and have fun\n\n.......................................................................................................................[center][img]http://s1.postimg.org/vw4njev9r/spy_ver5.jpg[/img]\n\nSpy.2015.UNRATED.HDRip.x264-MenaceIISociety &lt;a href=&quot;\nhttp://www.imdb.com/title/tt3079380/&quot; rel=&quot;nofollow&quot; target=&quot;_NEW&quot;&gt;\nhttp://www.imdb.com/title/tt3079380/&lt;/a&gt;\n\nSource: UNRATED.720p.WEB-DL.AAC.2.0.H264-SRS  [THANKS]\n\nNOTE: Adjusted some gain, coef, lowered some sat, increased gamma_y slightly, enjoy. http://screenshotcomparison.com/comparison/140046/picture:0\n\nGeneral\nComplete name                            : Spy.2015.UNRATED.HDRip.x264-MenaceIISociety.mp4\nFormat                                   : MPEG-4\nFormat profile                           : Base Media\nCodec ID                                 : isom\nFile size                                : 1.14 GiB\nDuration                                 : 2h 10mn\nOverall bit rate mode                    : Variable\nOverall bit rate                         : 1 255 Kbps\nEncoded date                             : UTC 2015-08-26 18:20:00\nTagged date                              : UTC 2015-08-26 18:20:00\n\nVideo\nID                                       : 1\nFormat                                   : AVC\nFormat/Info                              : Advanced Video Codec\nFormat profile                           : &lt;a class=&quot;__cf_email__&quot; href=&quot;/cdn-cgi/l/email-protection&quot; data-cfemail=&quot;9ad2f3fdf2dad6aeb4ab&quot;&gt;[email&amp;#160;protected]&lt;/a&gt;&lt;script data-cfhash='f9e31' type=&quot;text/javascript&quot;&gt;\n/* &lt;![CDATA[ */!function(){try{var t=&quot;currentScript&quot;in document?document.currentScript:function(){for(var t=document.getElementsByTagName(&quot;script&quot;),e=t.length;e--;)if(t[e].getAttribute(&quot;data-cfhash&quot;))return t[e]}();if(t&amp;&amp;t.previousSibling){var e,r,n,i,c=t.previousSibling,a=c.getAttribute(&quot;data-cfemail&quot;);if(a){for(e=&quot;&quot;,r=parseInt(a.substr(0,2),16),n=2;a.length-n;n+=2)i=parseInt(a.substr(n,2),16)^r,e+=String.fromCharCode(i);e=document.createTextNode(e),c.parentNode.replaceChild(e,c)}t.parentNode.removeChild(t);}}catch(u){}}()/* ]]&gt; */&lt;/script&gt;\nFormat settings, CABAC                   : Yes\nFormat settings, ReFrames                : 3 frames\nCodec ID                                 : avc1\nCodec ID/Info                            : Advanced Video Coding\nDuration                                 : 2h 10mn\nBit rate mode                            : Variable\nBit rate                                 : 1 130 Kbps\nMaximum bit rate                         : 40.0 Mbps\nWidth                                    : 720 pixels\nHeight                                   : 304 pixels\nDisplay aspect ratio                     : 2.35:1\nFrame rate mode                          : Constant\nFrame rate                               : 23.976 fps\nColor space                              : YUV\nChroma subsampling                       : 4:2:0\nBit depth                                : 8 bits\nScan type                                : Progressive\nBits/(Pixel*Frame)                       : 0.215\nStream size                              : 1.03 GiB (90%)\nWriting library                          : x264 core 148 r2579 73ae2d1\n\nAudio\nID                                       : 2\nFormat                                   : AAC\nFormat/Info                              : Advanced Audio Codec\nFormat profile                           : LC\nCodec ID                                 : 40\nDuration                                 : 2h 10mn\nBit rate mode                            : Variable\nBit rate                                 : 121 Kbps\nMaximum bit rate                         : 176 Kbps\nChannel(s)                               : 2 channels\nChannel positions                        : Front: L R\nSampling rate                            : 48.0 KHz\nCompression mode                         : Lossy\nStream size                              : 112 MiB (10%)\nLanguage                                 : English\nEncoded date                             : UTC 2015-08-26 16:14:51\nTagged date                              : UTC 2015-08-26 18:23:41\n\n[img]http://s9.postimg.org/l2jmkua33/vlcsnap_2015_08_26_20h46m40s587.jpg[/img]\n[img]http://s9.postimg.org/hmribacun/vlcsnap_2015_08_26_20h47m21s499.jpg[/img]\n[img]http://s9.postimg.org/wnye6aky7/vlcsnap_2015_08_26_20h47m28s922.jpg[/img]\n[img]http://s9.postimg.org/p5anjx47j/vlcsnap_2015_08_26_20h48m26s655.jpg[/img]\n[img]http://s9.postimg.org/83hthtpcf/vlcsnap_2015_08_26_20h49m53s301.jpg[/img]\n[img]http://s9.postimg.org/h7g8i9qxb/vlcsnap_2015_08_26_20h50m04s404.jpg[/img]\n[img]http://s9.postimg.org/ro0xycfbj/vlcsnap_2015_08_26_20h50m56s541.jpg[/img]\n[img]http://s9.postimg.org/qt9syki33/vlcsnap_2015_08_26_20h51m47s501.jpg[/img]\n[img]http://s9.postimg.org/emf98hqxb/vlcsnap_2015_08_26_20h52m32s598.jpg[/img] \n \n[img]http://s17.postimg.org/r1iiyw8yn/Untitled_1.png[/img][/center]","torrent":{"xt":"urn:btih:88a1d0b6a5a9343541c2f849602181aefedf82d2","amp;dn":"Spy.2015.UNRATED.HDRip.x264-MenaceIISociety","amp;tr":["udp%3A%2F%2Ftracker.openbittorrent.com%3A80","udp%3A%2F%2Fopen.demonii.com%3A1337","udp%3A%2F%2Ftracker.coppersurfer.tk%3A6969","udp%3A%2F%2Fexodus.desync.com%3A6969"],"infoHash":"88a1d0b6a5a9343541c2f849602181aefedf82d2","infoHashBuffer":{"type":"Buffer","data":[136,161,208,182,165,169,52,53,65,194,248,73,96,33,129,174,254,223,130,210]},"announce":[],"urlList":[]}}